<?xml version="1.0" encoding="UTF-8" standalone="no"?>
<svg
   xmlns:dc="http://purl.org/dc/elements/1.1/"
   xmlns:cc="http://creativecommons.org/ns#"
   xmlns:rdf="http://www.w3.org/1999/02/22-rdf-syntax-ns#"
   xmlns:svg="http://www.w3.org/2000/svg"
   xmlns="http://www.w3.org/2000/svg"
   id="svg4697"
   version="1.1"
   viewBox="0 0 255.56198 57.972225"
   height="57.972225mm"
   width="255.56198mm">
  <defs
     id="defs4691" />
  <metadata
     id="metadata4694">
    <rdf:RDF>
      <cc:Work
         rdf:about="">
        <dc:format>image/svg+xml</dc:format>
        <dc:type
           rdf:resource="http://purl.org/dc/dcmitype/StillImage" />
        <dc:title></dc:title>
      </cc:Work>
    </rdf:RDF>
  </metadata>
  <g
     transform="translate(21.947657,-119.84722)"
     id="layer1">
    <g
       id="g4797"
       transform="translate(-46.409237,107.02559)">
      <g
         id="g4549">
        <g
           style="fill:#fcb040;fill-opacity:1"
           transform="matrix(0.89824452,0,0,-0.89824452,53.234827,26.926766)"
           id="g20">
          <path
             id="path22"
             style="fill:#fcb040;fill-opacity:1;fill-rule:nonzero;stroke:none"
             d="m 0,0 -0.018,-0.304 c -0.012,-0.239 -0.063,-0.511 -0.121,-0.663 -0.128,0.07 -0.248,0.154 -0.356,0.227 -0.128,0.09 -0.249,0.171 -0.37,0.231 0.505,0.333 0.806,0.827 0.489,1.966 -0.026,0.091 -0.05,0.189 -0.077,0.29 0.21,-0.504 0.398,-0.921 0.412,-0.951 L 0.288,0.074 Z M 1.282,-0.168 1.234,0.313 0.623,0.158 0.745,0.899 C 0.75,0.922 0.839,1.473 0.823,2.625 0.818,3.025 0.851,3.313 0.878,3.572 0.931,4.055 0.977,4.471 0.787,5.222 0.626,5.863 0.542,6.277 0.501,6.498 c 0.38,0.456 0.932,1.738 -0.029,5.06 -1.135,3.924 -3.898,4.145 -4.557,4.145 H -4.096 L -4.215,15.678 C -5.918,15.036 -7.087,12.741 -6.093,10.015 -5.343,7.958 -4.258,6.47 -3.875,5.979 -3.957,5.607 -4.031,4.847 -3.614,3.96 -3.43,3.575 -3.26,3.292 -3.102,3.032 c 0.28,-0.469 0.503,-0.838 0.677,-1.667 0.1,-0.479 0.112,-0.877 0.121,-1.198 0.013,-0.404 0.048,-0.935 0.528,-1 -0.069,-0.186 -0.119,-0.47 -0.103,-0.933 -0.425,-0.464 -0.859,-1.413 -0.153,-2.527 0.612,-0.97 1.142,-1.531 2.037,-1.531 0.328,0 0.697,0.078 1.161,0.242 0.925,0.33 1.592,1.011 1.741,1.781 0.119,0.613 -0.103,1.202 -0.618,1.655 -0.881,0.772 -1.007,1.966 -1.007,1.978" />
        </g>
        <g
           style="fill:#fcb040;fill-opacity:1"
           transform="matrix(0.89824452,0,0,-0.89824452,41.37053,27.082085)"
           id="g24">
          <path
             id="path26"
             style="fill:#fcb040;fill-opacity:1;fill-rule:nonzero;stroke:none"
             d="M 0,0 C 0.172,0 0.347,0.026 0.521,0.079 0.948,0.207 1.29,0.494 1.51,0.906 1.932,1.698 1.913,2.948 1.454,4.428 1.04,5.768 0.743,6.444 0.591,6.748 c 0.202,0.561 0.493,2.128 -0.811,5.095 -1.193,2.722 -3.105,3.128 -4.14,3.128 -0.416,0 -0.686,-0.066 -0.78,-0.096 -0.684,-0.303 -1.186,-0.832 -1.45,-1.529 -0.443,-1.159 -0.239,-2.736 0.589,-4.555 0.904,-1.99 2.26,-2.832 3.046,-3.169 C -3.313,5.02 -3.523,4.046 -2.902,2.822 -2.193,1.427 -1.293,0 0,0 Z" />
        </g>
        <g
           style="fill:#fcb040;fill-opacity:1"
           transform="matrix(0.89824452,0,0,-0.89824452,42.633193,27.847016)"
           id="g28">
          <path
             id="path30"
             style="fill:#fcb040;fill-opacity:1;fill-rule:nonzero;stroke:none"
             d="m 0,0 c -0.423,0 -0.739,-0.042 -0.72,-0.042 -0.102,0 -0.641,-0.021 -1.023,-0.419 -0.17,-0.18 -0.369,-0.501 -0.342,-1.022 0.009,-0.22 0.004,-0.425 0,-0.624 -0.02,-0.723 -0.038,-1.473 0.672,-2.447 0.227,-0.31 0.505,-0.737 0.794,-1.187 1.183,-1.82 1.72,-2.563 2.272,-2.563 l 0.108,0.009 c 0.592,0.113 0.638,0.886 0.678,3.1 0.019,1.049 0.04,2.237 0.18,3.085 0.087,0.539 -0.022,0.994 -0.326,1.351 C 1.761,-0.132 0.752,0 0,0" />
        </g>
        <g
           style="fill:#fcb040;fill-opacity:1"
           transform="matrix(0.89824452,0,0,-0.89824452,34.312195,35.062808)"
           id="g32">
          <path
             id="path34"
             style="fill:#fcb040;fill-opacity:1;fill-rule:nonzero;stroke:none"
             d="m 0,0 c 0.159,0.683 0.284,2.032 -0.721,3.32 -0.766,0.984 -1.446,1.481 -2.022,1.481 -0.021,0 -0.033,-0.005 -0.054,-0.007 0.429,1.227 0.582,2.908 -0.458,4.809 -1.557,2.847 -3.488,3.272 -4.499,3.272 -0.348,0 -0.565,-0.052 -0.59,-0.059 L -8.482,12.753 C -10.347,11.435 -10.488,8.271 -8.791,5.848 -7.081,3.406 -4.53,2.631 -4.422,2.6 L -4.33,2.572 C -4.46,2.101 -4.5,1.61 -4.315,1.157 c 0.396,-0.98 1.465,-1.841 2.171,-2.411 0.224,-0.18 0.454,-0.367 0.517,-0.444 0.156,-0.196 0.313,-0.304 0.437,-0.391 0.17,-0.119 0.302,-0.209 0.48,-0.572 0.072,-0.147 0.063,-0.523 0.055,-0.855 -0.023,-0.9 -0.054,-2.265 1.292,-2.823 0.291,-0.12 0.582,-0.182 0.866,-0.182 0.654,0 1.221,0.335 1.519,0.898 0.454,0.853 0.244,2.036 -0.573,3.238 C 1.38,-0.809 0.534,-0.219 0,0" />
        </g>
        <g
           style="fill:#fcb040;fill-opacity:1"
           transform="matrix(0.89824452,0,0,-0.89824452,35.948641,62.488186)"
           id="g36">
          <path
             id="path38"
             style="fill:#fcb040;fill-opacity:1;fill-rule:nonzero;stroke:none"
             d="m 0,0 c -0.4,0.07 -0.902,0.156 -1.526,0.58 -1.642,1.119 -4.876,2.07 -5.013,2.109 l -0.114,0.018 c -4.271,0 -5.622,-1.557 -6.007,-2.863 -0.352,-1.201 0.084,-2.391 0.537,-2.682 0.69,-0.444 3.625,-1.314 7.126,-1.724 0.354,-0.042 0.696,-0.062 1.024,-0.062 1.766,0 3.347,0.57 4.336,1.565 C 0.9,-2.518 1.194,-1.902 1.19,-1.328 1.185,-0.207 0.557,-0.098 0,0" />
        </g>
        <g
           style="fill:#fcb040;fill-opacity:1"
           transform="matrix(0.89824452,0,0,-0.89824452,69.2749,22.025958)"
           id="g40">
          <path
             id="path42"
             style="fill:#fcb040;fill-opacity:1;fill-rule:nonzero;stroke:none"
             d="m 0,0 c 0.089,3.237 -3.06,4.583 -3.191,4.639 l -0.265,0.032 c -1.859,0 -2.724,-0.998 -3.194,-3.686 -0.518,-2.936 1.368,-5.374 1.478,-5.515 l -0.214,-0.062 -0.08,-0.093 c -0.039,-0.045 -0.969,-1.141 -0.647,-2.611 0.168,-0.772 0.482,-1.291 0.74,-1.61 -0.298,-0.273 -0.657,-0.756 -0.897,-1.599 -0.411,-1.451 -0.397,-3.619 -0.397,-3.71 l 0.008,-1.198 0.733,0.947 c 0.112,0.144 0.412,0.422 0.603,0.422 0.021,0 0.066,0 0.135,-0.072 0.124,-0.126 0.223,-0.58 0.287,-0.882 0.122,-0.575 0.252,-1.17 0.786,-1.17 0.397,0 0.691,0.387 1.035,1.009 1.047,1.897 0.594,4.684 0.428,5.51 0.32,0.339 0.959,1.148 1.235,2.462 0.218,1.047 0.078,1.999 -0.073,2.609 C -0.789,-3.886 -0.063,-2.282 0,0" />
        </g>
        <g
           style="fill:#fcb040;fill-opacity:1"
           transform="matrix(0.89824452,0,0,-0.89824452,64.799435,47.791287)"
           id="g44">
          <path
             id="path46"
             style="fill:#fcb040;fill-opacity:1;fill-rule:nonzero;stroke:none"
             d="M 0,0 C 2.048,-1.863 7.526,6.531 0.702,9.514 -6.121,12.5 -20.297,11.7 -30.579,5.816 c -1.263,-0.726 -1.45,-10.89 3.344,-14.801 0.345,-0.281 15.43,4.069 17.672,0.776 2.643,-3.864 0.809,-7.139 -1.257,-8.624 -2.066,-1.484 -4.363,-1.185 -4.363,-1.185 0,0 3.317,0.623 4.768,3.008 0.519,0.851 0.57,1.674 0.427,2.385 -3.014,-2.868 -11.086,-3.874 -14.536,-4.768 -4.541,-1.177 -2.773,-8.108 1.01,-7.596 3.783,0.514 25.562,-0.025 25.562,14.658 0,10.48 -13.475,9.339 -19.95,8.188 -6.614,-1.328 -8.157,-2.605 -8.157,-2.605 0,0 0.716,0.726 3.723,2.384 0.245,0.138 0.465,0.246 0.69,0.359 -0.618,1.728 -0.687,3.117 -0.687,3.117 C -21.813,1.926 -5.277,4.811 0,0" />
        </g>
      </g>
      <path
         id="path4616"
         style="font-style:normal;font-variant:normal;font-weight:bold;font-stretch:normal;font-size:61.13222504px;line-height:1.25;font-family:Harabara;-inkscape-font-specification:'Harabara, Bold';font-variant-ligatures:normal;font-variant-caps:normal;font-variant-numeric:normal;font-feature-settings:normal;text-align:start;letter-spacing:0px;word-spacing:0px;writing-mode:lr-tb;text-anchor:start;fill:#fcb040;fill-opacity:1;stroke:none;stroke-width:1.52830553"
         d="M 102.02615,70.196861 H 93.787634 V 51.570636 49.899052 q 0,-2.865573 -1.79098,-4.178961 -1.67159,-1.313387 -3.82077,-1.313387 -2.14918,0 -3.82076,1.313387 -1.67158,1.313388 -1.67158,4.178961 v 20.297809 h -8.35793 V 51.570636 q 0,-8.119123 4.17897,-10.865297 4.29835,-2.746175 9.43251,-2.984972 2.74617,0 5.37295,0.596994 2.62677,0.596994 4.77595,2.387978 1.79098,-1.552186 4.178956,-2.14918 2.50738,-0.716393 5.13415,-0.835792 5.25355,0 9.67131,2.746174 4.41776,2.746174 4.41776,11.104095 v 18.626225 h -4.17896 q -1.79098,0 -2.98497,-1.07459 -1.07459,-1.193988 -1.07459,-2.984972 v 0 -16.238247 q 0,-2.865573 -1.79098,-4.178961 -1.67159,-1.313387 -3.82077,-1.313387 -2.14918,0 -3.94016,1.313387 -1.67159,1.313388 -1.67159,4.178961 v 1.671584 z" />
      <path
         id="path4618"
         style="font-style:normal;font-variant:normal;font-weight:bold;font-stretch:normal;font-size:61.13222504px;line-height:1.25;font-family:Harabara;-inkscape-font-specification:'Harabara, Bold';font-variant-ligatures:normal;font-variant-caps:normal;font-variant-numeric:normal;font-feature-settings:normal;text-align:start;letter-spacing:0px;word-spacing:0px;writing-mode:lr-tb;text-anchor:start;fill:#fcb040;fill-opacity:1;stroke:none;stroke-width:1.52830553"
         d="m 150.16893,38.43676 v 18.626225 q 0,8.47732 -4.41776,11.104095 -4.41776,2.626776 -9.67131,2.626776 -5.13415,-0.238798 -9.43251,-2.865573 -4.17896,-2.626776 -4.17896,-10.865298 V 38.43676 h 8.35792 v 20.297809 q 0,2.865573 1.67158,4.178961 1.67159,1.313387 3.82077,1.313387 2.14918,0 3.82076,-1.313387 1.79099,-1.313388 1.79099,-4.178961 v -16.238247 0 q 0,-1.671584 1.07459,-2.865573 1.19398,-1.193989 2.98497,-1.193989 z" />
      <path
         id="path4620"
         style="font-style:normal;font-variant:normal;font-weight:bold;font-stretch:normal;font-size:61.13222504px;line-height:1.25;font-family:Harabara;-inkscape-font-specification:'Harabara, Bold';font-variant-ligatures:normal;font-variant-caps:normal;font-variant-numeric:normal;font-feature-settings:normal;text-align:start;letter-spacing:0px;word-spacing:0px;writing-mode:lr-tb;text-anchor:start;fill:#fcb040;fill-opacity:1;stroke:none;stroke-width:1.52830553"
         d="m 172.91096,29.004249 h 4.05956 q 1.67158,0 2.86557,1.313387 1.19399,1.193989 1.19399,2.746175 v 23.282781 q 0,8.47732 -4.89535,11.462292 -4.89536,2.984972 -10.6265,2.984972 -3.10437,0 -6.08934,-0.955191 -2.98498,-1.07459 -4.77596,-3.343169 -3.46257,-4.417758 -3.46257,-12.059287 0,-7.522129 3.46257,-12.059286 3.58197,-4.656556 9.19371,-4.656556 2.98498,0 5.25355,1.193988 2.38798,1.432787 3.82077,3.701366 z m -13.61147,25.073764 q 0,4.775955 1.79098,7.283331 1.79098,2.507377 5.13415,2.507377 3.22377,0 5.01475,-2.507377 1.67159,-2.507376 1.67159,-7.283331 0,-4.29836 -1.79098,-6.805736 -1.91039,-2.387978 -5.13416,-2.387978 -3.10437,0 -4.89535,2.507377 -1.79098,2.387977 -1.79098,6.686337 z" />
      <path
         id="path4622"
         style="font-style:normal;font-variant:normal;font-weight:bold;font-stretch:normal;font-size:61.13222504px;line-height:1.25;font-family:Harabara;-inkscape-font-specification:'Harabara, Bold';font-variant-ligatures:normal;font-variant-caps:normal;font-variant-numeric:normal;font-feature-settings:normal;text-align:start;letter-spacing:0px;word-spacing:0px;writing-mode:lr-tb;text-anchor:start;fill:#fcb040;fill-opacity:1;stroke:none;stroke-width:1.52830553"
         d="m 182.05982,38.43676 h 4.29836 q 1.67158,0 2.86557,1.193989 1.19399,1.193989 1.19399,2.865573 v 27.700539 h -8.35792 z m 0,-9.313112 h 4.29836 q 1.67158,0 2.86557,1.193988 1.19399,1.193989 1.19399,2.865573 v 2.507377 h -8.35792 z" />
      <path
         id="path4624"
         style="font-style:normal;font-variant:normal;font-weight:bold;font-stretch:normal;font-size:61.13222504px;line-height:1.25;font-family:Harabara;-inkscape-font-specification:'Harabara, Bold';font-variant-ligatures:normal;font-variant-caps:normal;font-variant-numeric:normal;font-feature-settings:normal;text-align:start;letter-spacing:0px;word-spacing:0px;writing-mode:lr-tb;text-anchor:start;fill:#fcb040;fill-opacity:1;stroke:none;stroke-width:1.52830553"
         d="m 210.58044,54.197412 q -1.67158,0.835792 -4.65655,1.552185 -2.74618,0.596995 -2.74618,0.596995 -2.14918,0.596994 -3.10437,1.552185 -0.83579,1.313388 -0.83579,2.626775 0,1.790983 1.07459,2.865573 1.07459,0.955191 3.10437,0.955191 3.34317,0 5.25355,-1.910382 1.91038,-1.910382 1.91038,-5.25355 z m 1.91038,14.686062 q -2.50737,1.313387 -5.37294,1.552185 -2.74618,0.358197 -4.89536,0.358197 -4.29836,0 -7.52213,-2.268579 -3.22377,-2.387978 -3.22377,-7.760927 0,-5.014753 2.86558,-7.163933 2.98497,-2.149179 7.52212,-2.865573 0.597,0 1.43279,-0.119399 0.83579,-0.238797 1.91038,-0.358196 5.25355,-0.716393 5.25355,-3.104371 0,-1.790983 -1.91038,-2.268579 -1.79098,-0.596994 -3.34317,-0.596994 -1.67158,0 -2.98497,0.477595 -1.31339,0.477596 -1.91038,1.790984 h -7.99973 q 0.4776,-3.701366 3.34317,-6.089343 3.22377,-2.746174 9.19372,-2.746174 6.68633,0 10.0295,2.268578 3.46257,2.387978 3.46257,6.686337 V 57.54058 q 0,4.775955 -1.79098,7.52213 -1.67159,2.626775 -4.05957,3.820764 z" />
      <path
         id="path4626"
         style="font-style:normal;font-variant:normal;font-weight:bold;font-stretch:normal;font-size:61.13222504px;line-height:1.25;font-family:Harabara;-inkscape-font-specification:'Harabara, Bold';font-variant-ligatures:normal;font-variant-caps:normal;font-variant-numeric:normal;font-feature-settings:normal;text-align:start;letter-spacing:0px;word-spacing:0px;writing-mode:lr-tb;text-anchor:start;fill:#fcb040;fill-opacity:1;stroke:none;stroke-width:1.52830553"
         d="M 219.53535,70.196861 V 54.794406 q 0,-4.656556 1.31338,-7.760927 1.43279,-3.22377 3.82077,-5.134152 2.26858,-1.790983 5.25355,-2.626775 3.10437,-0.835792 6.32814,-0.835792 0.2388,0 0.59699,0 0.3582,0 0.597,0 v 8.47732 H 234.699 q -3.46256,0 -5.13415,1.671585 -1.67158,1.671584 -1.67158,5.25355 v 16.357646 z" />
      <path
         id="path4628"
         style="font-style:normal;font-variant:normal;font-weight:bold;font-stretch:normal;font-size:61.13222504px;line-height:1.25;font-family:Harabara;-inkscape-font-specification:'Harabara, Bold';font-variant-ligatures:normal;font-variant-caps:normal;font-variant-numeric:normal;font-feature-settings:normal;text-align:start;letter-spacing:0px;word-spacing:0px;writing-mode:lr-tb;text-anchor:start;fill:#fcb040;fill-opacity:1;stroke:none;stroke-width:1.52830553"
         d="m 251.73037,70.196861 q -3.94016,0.238798 -8.59672,-0.119399 -4.53716,-0.358196 -4.53716,-5.850545 V 29.123648 h 4.29836 q 1.55219,0 2.74618,1.193988 1.19399,1.193989 1.19399,2.865573 v 5.37295 h 4.89535 v 1.671584 q 0,1.790983 -1.19399,2.984972 -1.19399,1.07459 -2.86557,1.07459 h -0.83579 v 17.671034 q 0,2.029781 2.38797,2.029781 h 2.50738 z" />
      <path
         id="path4630"
         style="font-style:normal;font-variant:normal;font-weight:bold;font-stretch:normal;font-size:61.13222504px;line-height:1.25;font-family:Harabara;-inkscape-font-specification:'Harabara, Bold';font-variant-ligatures:normal;font-variant-caps:normal;font-variant-numeric:normal;font-feature-settings:normal;text-align:start;letter-spacing:0px;word-spacing:0px;writing-mode:lr-tb;text-anchor:start;fill:#fcb040;fill-opacity:1;stroke:none;stroke-width:1.52830553"
         d="m 255.4274,67.331288 q -2.50738,-2.14918 -3.58197,-5.731146 -1.07459,-3.701365 -1.07459,-7.641528 0,-3.22377 0.83579,-6.447539 0.95519,-3.22377 2.86557,-5.37295 3.10438,-3.581966 7.99973,-4.178961 4.89535,-0.716393 8.83552,0.716394 4.53715,1.790983 6.68633,6.208741 2.02978,3.940163 2.02978,9.193714 0,3.820764 -0.83579,6.566938 -0.83579,2.746174 -2.14918,4.656556 -2.86557,3.940163 -7.28333,4.895354 -3.94016,1.07459 -7.99972,0.119399 -3.94017,-0.835792 -6.32814,-2.984972 z m 5.73114,-21.014202 q -2.50737,2.746174 -2.26858,8.238522 0.2388,5.37295 2.02978,7.52213 0.7164,0.955191 2.50738,1.671584 1.79098,0.596994 3.58197,0.119399 1.91038,-0.596995 3.34317,-2.746174 1.43278,-2.14918 1.55218,-6.925135 0,-4.29836 -1.43279,-6.44754 -1.31338,-2.149179 -3.10437,-2.746174 -1.79098,-0.596994 -3.58196,0 -1.79099,0.477596 -2.62678,1.313388 z" />
    </g>
  </g>
</svg>
